<svg width="200" height="200" viewBox="0 0 200 200" fill="none" xmlns="http://www.w3.org/2000/svg">
<path d="M200 48.4848C200 75.2623 178.293 96.9697 151.515 96.9697C124.738 96.9697 103.03 75.2623 103.03 48.4848C103.03 21.7074 124.738 0 151.515 0C178.293 0 200 21.7074 200 48.4848Z" fill="#0A004F"/>
<path d="M96.9697 151.515C96.9697 178.293 75.2623 200 48.4848 200C21.7074 200 5.78176e-07 178.293 5.78176e-07 151.515C5.78176e-07 124.738 21.7074 103.03 48.4848 103.03C75.2623 103.03 96.9697 124.738 96.9697 151.515Z" fill="#0A004F"/>
<path fill-rule="evenodd" clip-rule="evenodd" d="M151.515 103.03C178.293 103.03 200 124.738 200 151.515C200 178.293 178.293 200 151.515 200C124.738 200 103.03 178.293 103.03 151.515V103.03H151.515ZM136.364 157.576C141.384 157.576 145.455 153.506 145.455 148.485C145.455 143.464 141.384 139.394 136.364 139.394C131.343 139.394 127.273 143.464 127.273 148.485C127.273 153.506 131.343 157.576 136.364 157.576ZM169.697 148.485C169.697 153.506 165.627 157.576 160.606 157.576C155.585 157.576 151.515 153.506 151.515 148.485C151.515 143.464 155.585 139.394 160.606 139.394C165.627 139.394 169.697 143.464 169.697 148.485Z" fill="#471DC4"/>
<path fill-rule="evenodd" clip-rule="evenodd" d="M48.4848 96.9697C21.7074 96.9697 3.19318e-07 75.2623 0 48.4848C-3.19318e-07 21.7074 21.7074 8.97494e-07 48.4848 5.78176e-07C75.2623 2.58858e-07 96.9697 21.7074 96.9697 48.4848V96.9697H48.4848ZM63.6364 42.4242C58.6156 42.4242 54.5455 46.4944 54.5455 51.5152C54.5455 56.5359 58.6156 60.6061 63.6364 60.6061C68.6571 60.6061 72.7273 56.5359 72.7273 51.5152C72.7273 46.4944 68.6571 42.4242 63.6364 42.4242ZM30.303 51.5152C30.303 46.4944 34.3732 42.4242 39.3939 42.4242C44.4147 42.4242 48.4848 46.4944 48.4848 51.5152C48.4848 56.5359 44.4147 60.6061 39.3939 60.6061C34.3732 60.6061 30.303 56.5359 30.303 51.5152Z" fill="#471DC4"/>
</svg>
